# xmcd
#
# Track frame offsets: 
#        150
#        14719
#        31824
#        50651
#        71943
#        96790
#        120305
#        142953
#        161435
#        177969
#        198098
#        213698
#
# Disc length: 3194 seconds
#
# Revision: 0
# Processed by: cddbd v1.4PL0 Copyright (c) Steve Scherf et al.
# Submitted via: ExactAudioCopy v0.95a3
#
DISCID=a80c780c
DTITLE=Wanda Hunt Band - Wanda Hunt Band
DYEAR=2000
DGENRE=Blues
TTITLE0=Champagne And Bar-B-Que
TTITLE1=Party Town
TTITLE2=Have Mercy
TTITLE3=Right Stuff
TTITLE4=All I need Is A Reason
TTITLE5=I'll Move On
TTITLE6=Room To Breathe
TTITLE7=Can't Sit Down
TTITLE8=Playboy In Love
TTITLE9=Slow Time
TTITLE10=Wanda's Blues
TTITLE11=Way Down Blues
EXTD=
EXTT0=
EXTT1=
EXTT2=
EXTT3=
EXTT4=
EXTT5=
EXTT6=
EXTT7=
EXTT8=
EXTT9=
EXTT10=
EXTT11=
PLAYORDER=
